<?xml version="1.0" encoding="UTF-8" standalone="no"?>
<!DOCTYPE svg PUBLIC "-//W3C//DTD SVG 1.1//EN" "http://www.w3.org/Graphics/SVG/1.1/DTD/svg11.dtd">
<svg width="100%" height="100%" viewBox="0 0 2930 272" version="1.1" xmlns="http://www.w3.org/2000/svg" xmlns:xlink="http://www.w3.org/1999/xlink" xml:space="preserve" xmlns:serif="http://www.serif.com/" style="fill-rule:evenodd;clip-rule:evenodd;stroke-linejoin:round;stroke-miterlimit:2;">
    <style>
        path { fill: #1f2328; } /* Dark text for light mode - GitHub light text color */
        @media (prefers-color-scheme: dark) {
            path { fill: #e6edf3; } /* Light text for dark mode - GitHub dark text color */
        }
    </style>
    <g transform="matrix(1,0,0,1,-34.3106,-985.592)">
        <g transform="matrix(0.938552,0,0,0.938552,-139.603,17.476)">
            <g transform="matrix(300,0,0,300,173,1258)">
                <path d="M0.264,0.01c-0.07,0 -0.125,-0.015 -0.164,-0.046c-0.039,-0.03 -0.059,-0.073 -0.059,-0.128c0,-0.055 0.021,-0.097 0.062,-0.126c0.041,-0.029 0.102,-0.044 0.182,-0.043l0.097,-0.001l0,0.088l-0.096,0c-0.091,0 -0.136,0.027 -0.136,0.082c-0,0.026 0.01,0.046 0.029,0.061c0.019,0.015 0.046,0.023 0.08,0.023c0.02,-0 0.037,-0.003 0.054,-0.008c0.017,-0.005 0.032,-0.011 0.044,-0.02l-0.028,0.059l-0,-0.288c-0,-0.029 -0.003,-0.05 -0.007,-0.065c-0.004,-0.014 -0.013,-0.024 -0.026,-0.029c-0.014,-0.005 -0.034,-0.007 -0.06,-0.007c-0.018,0 -0.035,0.001 -0.052,0.003c-0.017,0.001 -0.034,0.004 -0.052,0.008c-0.018,0.004 -0.039,0.01 -0.062,0.017l0,-0.092c0.024,-0.009 0.051,-0.016 0.081,-0.021c0.031,-0.005 0.063,-0.007 0.097,-0.007c0.048,0 0.086,0.006 0.113,0.017c0.028,0.011 0.047,0.031 0.058,0.059c0.012,0.027 0.017,0.065 0.018,0.114l-0.001,0.318c-0.021,0.01 -0.048,0.018 -0.079,0.024c-0.031,0.005 -0.062,0.008 -0.093,0.008Z" style="fill-rule:nonzero;"/>
            </g>
            <g transform="matrix(300,0,0,300,323,1258)">
                <path d="M0.266,0.01c-0.054,0 -0.098,-0.009 -0.131,-0.028c-0.033,-0.018 -0.057,-0.048 -0.072,-0.089c-0.014,-0.041 -0.022,-0.096 -0.022,-0.163c0,-0.064 0.006,-0.114 0.019,-0.152c0.012,-0.038 0.032,-0.066 0.06,-0.083c0.027,-0.017 0.064,-0.025 0.11,-0.025c0.028,0 0.054,0.003 0.08,0.009c0.026,0.005 0.05,0.014 0.073,0.027l-0.032,0.09c-0.022,-0.011 -0.042,-0.019 -0.059,-0.024c-0.017,-0.005 -0.035,-0.007 -0.052,-0.007c-0.023,0 -0.041,0.005 -0.054,0.015c-0.014,0.01 -0.023,0.028 -0.029,0.052c-0.005,0.024 -0.008,0.057 -0.008,0.1c0,0.047 0.003,0.083 0.01,0.11c0.006,0.027 0.017,0.046 0.032,0.057c0.016,0.011 0.037,0.017 0.064,0.017c0.038,0 0.071,-0.009 0.097,-0.028l-0.024,0.053l0,-0.671l0.108,0l0,0.708c-0.021,0.009 -0.047,0.017 -0.076,0.023c-0.029,0.006 -0.061,0.009 -0.094,0.009Z" style="fill-rule:nonzero;"/>
            </g>
            <g transform="matrix(300,0,0,300,473,1258)">
                <path d="M0.264,0.01c-0.07,0 -0.125,-0.015 -0.164,-0.046c-0.039,-0.03 -0.059,-0.073 -0.059,-0.128c0,-0.055 0.021,-0.097 0.062,-0.126c0.041,-0.029 0.102,-0.044 0.182,-0.043l0.097,-0.001l0,0.088l-0.096,0c-0.091,0 -0.136,0.027 -0.136,0.082c-0,0.026 0.01,0.046 0.029,0.061c0.019,0.015 0.046,0.023 0.08,0.023c0.02,-0 0.037,-0.003 0.054,-0.008c0.017,-0.005 0.032,-0.011 0.044,-0.02l-0.028,0.059l-0,-0.288c-0,-0.029 -0.003,-0.05 -0.007,-0.065c-0.004,-0.014 -0.013,-0.024 -0.026,-0.029c-0.014,-0.005 -0.034,-0.007 -0.06,-0.007c-0.018,0 -0.035,0.001 -0.052,0.003c-0.017,0.001 -0.034,0.004 -0.052,0.008c-0.018,0.004 -0.039,0.01 -0.062,0.017l0,-0.092c0.024,-0.009 0.051,-0.016 0.081,-0.021c0.031,-0.005 0.063,-0.007 0.097,-0.007c0.048,0 0.086,0.006 0.113,0.017c0.028,0.011 0.047,0.031 0.058,0.059c0.012,0.027 0.017,0.065 0.018,0.114l-0.001,0.318c-0.021,0.01 -0.048,0.018 -0.079,0.024c-0.031,0.005 -0.062,0.008 -0.093,0.008Z" style="fill-rule:nonzero;"/>
            </g>
            <g transform="matrix(300,0,0,300,623,1258)">
                <path d="M0.064,-0.498c0.047,-0.021 0.104,-0.032 0.171,-0.032c0.055,0 0.099,0.008 0.131,0.025c0.033,0.017 0.057,0.044 0.071,0.082c0.015,0.038 0.022,0.089 0.022,0.153c0,0.067 -0.007,0.122 -0.022,0.163c-0.015,0.041 -0.039,0.07 -0.072,0.089c-0.033,0.019 -0.076,0.028 -0.13,0.028c-0.022,0 -0.043,-0.001 -0.063,-0.004c-0.02,-0.003 -0.038,-0.007 -0.055,-0.012l0.027,-0.097c0.02,0.007 0.038,0.012 0.054,0.015c0.016,0.003 0.031,0.005 0.046,0.005c0.027,-0 0.049,-0.006 0.065,-0.017c0.015,-0.011 0.026,-0.03 0.033,-0.057c0.006,-0.027 0.009,-0.064 0.009,-0.111c0,-0.043 -0.003,-0.077 -0.009,-0.101c-0.006,-0.024 -0.017,-0.041 -0.032,-0.051c-0.015,-0.01 -0.035,-0.015 -0.061,-0.015c-0.016,0 -0.032,0.002 -0.048,0.005c-0.016,0.003 -0.034,0.009 -0.054,0.017l0.025,-0.058l0,0.681l-0.108,-0l0,-0.708Z" style="fill-rule:nonzero;"/>
            </g>
            <g transform="matrix(300,0,0,300,773,1258)">
                <path d="M0.317,0.01c-0.061,0 -0.105,-0.012 -0.132,-0.037c-0.027,-0.024 -0.04,-0.065 -0.04,-0.123l0,-0.276l-0.121,0l0.001,-0.094l0.12,0l0,-0.17l0.11,0l0,0.17l0.185,0l-0.001,0.094l-0.184,0l0,0.25c0,0.035 0.006,0.058 0.018,0.071c0.012,0.013 0.034,0.019 0.068,0.019c0.018,0 0.035,-0.002 0.052,-0.005c0.017,-0.003 0.032,-0.007 0.046,-0.013l0.001,0.096c-0.02,0.006 -0.04,0.011 -0.061,0.014c-0.02,0.003 -0.041,0.004 -0.063,0.004Z" style="fill-rule:nonzero;"/>
            </g>
            <g transform="matrix(300,0,0,300,923,1258)">
                <path d="M0.247,-0l0,-0.426l-0.17,0l0,-0.094l0.28,0l0,0.52l-0.11,-0Zm0.04,-0.597c-0.025,0 -0.046,-0.007 -0.061,-0.021c-0.015,-0.014 -0.022,-0.034 -0.022,-0.058c-0,-0.025 0.007,-0.044 0.022,-0.058c0.015,-0.014 0.036,-0.021 0.061,-0.021c0.025,0 0.045,0.007 0.06,0.021c0.015,0.014 0.023,0.033 0.023,0.058c-0.001,0.024 -0.008,0.044 -0.023,0.058c-0.015,0.014 -0.035,0.021 -0.06,0.021Z" style="fill-rule:nonzero;"/>
            </g>
            <g transform="matrix(300,0,0,300,1073,1258)">
                <path d="M0.187,-0l-0.169,-0.52l0.115,0l0.115,0.394l0.004,-0.001l0.115,-0.393l0.115,0l-0.168,0.52l-0.127,-0Z" style="fill-rule:nonzero;"/>
            </g>
            <g transform="matrix(300,0,0,300,1223,1258)">
                <path d="M0.287,0.01c-0.081,0 -0.141,-0.021 -0.181,-0.062c-0.039,-0.041 -0.059,-0.103 -0.059,-0.188l0,-0.04c0,-0.086 0.017,-0.149 0.049,-0.19c0.033,-0.04 0.084,-0.06 0.154,-0.06c0.07,0 0.121,0.02 0.154,0.061c0.032,0.04 0.048,0.103 0.048,0.189l0.001,0.068l-0.352,-0l-0,-0.088l0.266,0l-0.021,0.029l0.001,-0.005c-0.001,-0.058 -0.008,-0.099 -0.023,-0.124c-0.015,-0.025 -0.039,-0.037 -0.074,-0.037c-0.034,0 -0.058,0.012 -0.073,0.037c-0.015,0.025 -0.022,0.066 -0.022,0.125l-0.001,0.031c0.001,0.042 0.005,0.075 0.013,0.098c0.008,0.023 0.022,0.04 0.043,0.049c0.02,0.009 0.049,0.014 0.086,0.014c0.019,0 0.039,-0.001 0.059,-0.003c0.02,-0.003 0.042,-0.007 0.068,-0.013l0,0.093c-0.021,0.005 -0.043,0.009 -0.067,0.012c-0.024,0.003 -0.047,0.004 -0.069,0.004Z" style="fill-rule:nonzero;"/>
            </g>
            <g transform="matrix(300,0,0,300,1523,1258)">
                <path d="M0.11,-0.475c0.034,-0.011 0.071,-0.021 0.11,-0.029c0.04,-0.008 0.079,-0.014 0.118,-0.019c0.038,-0.005 0.074,-0.007 0.107,-0.007l0,0.095c-0.042,0 -0.086,0.004 -0.132,0.012c-0.046,0.008 -0.086,0.018 -0.121,0.031l0.028,-0.052l0,0.444l-0.11,-0l0,-0.475Z" style="fill-rule:nonzero;"/>
            </g>
            <g transform="matrix(300,0,0,300,1673,1258)">
                <path d="M0.264,0.01c-0.07,0 -0.125,-0.015 -0.164,-0.046c-0.039,-0.03 -0.059,-0.073 -0.059,-0.128c0,-0.055 0.021,-0.097 0.062,-0.126c0.041,-0.029 0.102,-0.044 0.182,-0.043l0.097,-0.001l0,0.088l-0.096,0c-0.091,0 -0.136,0.027 -0.136,0.082c-0,0.026 0.01,0.046 0.029,0.061c0.019,0.015 0.046,0.023 0.08,0.023c0.02,-0 0.037,-0.003 0.054,-0.008c0.017,-0.005 0.032,-0.011 0.044,-0.02l-0.028,0.059l-0,-0.288c-0,-0.029 -0.003,-0.05 -0.007,-0.065c-0.004,-0.014 -0.013,-0.024 -0.026,-0.029c-0.014,-0.005 -0.034,-0.007 -0.06,-0.007c-0.018,0 -0.035,0.001 -0.052,0.003c-0.017,0.001 -0.034,0.004 -0.052,0.008c-0.018,0.004 -0.039,0.01 -0.062,0.017l0,-0.092c0.024,-0.009 0.051,-0.016 0.081,-0.021c0.031,-0.005 0.063,-0.007 0.097,-0.007c0.048,0 0.086,0.006 0.113,0.017c0.028,0.011 0.047,0.031 0.058,0.059c0.012,0.027 0.017,0.065 0.018,0.114l-0.001,0.318c-0.021,0.01 -0.048,0.018 -0.079,0.024c-0.031,0.005 -0.062,0.008 -0.093,0.008Z" style="fill-rule:nonzero;"/>
            </g>
            <g transform="matrix(300,0,0,300,1823,1258)">
                <path d="M0.317,0.01c-0.061,0 -0.105,-0.012 -0.132,-0.037c-0.027,-0.024 -0.04,-0.065 -0.04,-0.123l0,-0.276l-0.121,0l0.001,-0.094l0.12,0l0,-0.17l0.11,0l0,0.17l0.185,0l-0.001,0.094l-0.184,0l0,0.25c0,0.035 0.006,0.058 0.018,0.071c0.012,0.013 0.034,0.019 0.068,0.019c0.018,0 0.035,-0.002 0.052,-0.005c0.017,-0.003 0.032,-0.007 0.046,-0.013l0.001,0.096c-0.02,0.006 -0.04,0.011 -0.061,0.014c-0.02,0.003 -0.041,0.004 -0.063,0.004Z" style="fill-rule:nonzero;"/>
            </g>
            <g transform="matrix(300,0,0,300,1973,1258)">
                <path d="M0.287,0.01c-0.081,0 -0.141,-0.021 -0.181,-0.062c-0.039,-0.041 -0.059,-0.103 -0.059,-0.188l0,-0.04c0,-0.086 0.017,-0.149 0.049,-0.19c0.033,-0.04 0.084,-0.06 0.154,-0.06c0.07,0 0.121,0.02 0.154,0.061c0.032,0.04 0.048,0.103 0.048,0.189l0.001,0.068l-0.352,-0l-0,-0.088l0.266,0l-0.021,0.029l0.001,-0.005c-0.001,-0.058 -0.008,-0.099 -0.023,-0.124c-0.015,-0.025 -0.039,-0.037 -0.074,-0.037c-0.034,0 -0.058,0.012 -0.073,0.037c-0.015,0.025 -0.022,0.066 -0.022,0.125l-0.001,0.031c0.001,0.042 0.005,0.075 0.013,0.098c0.008,0.023 0.022,0.04 0.043,0.049c0.02,0.009 0.049,0.014 0.086,0.014c0.019,0 0.039,-0.001 0.059,-0.003c0.02,-0.003 0.042,-0.007 0.068,-0.013l0,0.093c-0.021,0.005 -0.043,0.009 -0.067,0.012c-0.024,0.003 -0.047,0.004 -0.069,0.004Z" style="fill-rule:nonzero;"/>
            </g>
            <g transform="matrix(300,0,0,300,2273,1258)">
                <path d="M0.348,0.01c-0.058,0 -0.1,-0.012 -0.125,-0.037c-0.025,-0.024 -0.038,-0.065 -0.038,-0.123l-0,-0.486l-0.15,0l-0,-0.094l0.26,0l-0,0.555c-0,0.034 0.005,0.057 0.016,0.07c0.011,0.013 0.032,0.019 0.063,0.019c0.017,-0 0.033,-0.002 0.048,-0.005c0.015,-0.003 0.03,-0.007 0.043,-0.013l0,0.096c-0.019,0.006 -0.038,0.011 -0.057,0.014c-0.019,0.003 -0.039,0.004 -0.06,0.004Z" style="fill-rule:nonzero;"/>
            </g>
            <g transform="matrix(300,0,0,300,2423,1258)">
                <path d="M0.247,-0l0,-0.426l-0.17,0l0,-0.094l0.28,0l0,0.52l-0.11,-0Zm0.04,-0.597c-0.025,0 -0.046,-0.007 -0.061,-0.021c-0.015,-0.014 -0.022,-0.034 -0.022,-0.058c-0,-0.025 0.007,-0.044 0.022,-0.058c0.015,-0.014 0.036,-0.021 0.061,-0.021c0.025,0 0.045,0.007 0.06,0.021c0.015,0.014 0.023,0.033 0.023,0.058c-0.001,0.024 -0.008,0.044 -0.023,0.058c-0.015,0.014 -0.035,0.021 -0.06,0.021Z" style="fill-rule:nonzero;"/>
            </g>
            <g transform="matrix(300,0,0,300,2573,1258)">
                <path d="M0.025,-0l0,-0.5c0.018,-0.01 0.038,-0.017 0.06,-0.022c0.022,-0.005 0.046,-0.008 0.072,-0.008c0.022,0 0.039,0.002 0.052,0.007c0.013,0.004 0.027,0.012 0.041,0.023c0.017,-0.011 0.034,-0.019 0.049,-0.023c0.015,-0.005 0.033,-0.007 0.055,-0.007c0.046,0 0.078,0.011 0.095,0.032c0.017,0.021 0.026,0.06 0.026,0.116l0,0.382l-0.101,-0l0,-0.383c-0,-0.014 -0.001,-0.024 -0.004,-0.032c-0.002,-0.007 -0.006,-0.012 -0.011,-0.015c-0.006,-0.003 -0.014,-0.005 -0.024,-0.005c-0.007,0 -0.014,0.001 -0.02,0.004c-0.006,0.002 -0.012,0.005 -0.017,0.01l0,0.421l-0.096,0l0,-0.407c0,-0.007 -0.001,-0.012 -0.004,-0.016c-0.003,-0.004 -0.007,-0.007 -0.012,-0.009c-0.005,-0.002 -0.011,-0.003 -0.019,-0.003c-0.016,0 -0.03,0.005 -0.041,0.014l0,0.421l-0.101,0Z" style="fill-rule:nonzero;"/>
            </g>
            <g transform="matrix(300,0,0,300,2723,1258)">
                <path d="M0.247,-0l0,-0.426l-0.17,0l0,-0.094l0.28,0l0,0.52l-0.11,-0Zm0.04,-0.597c-0.025,0 -0.046,-0.007 -0.061,-0.021c-0.015,-0.014 -0.022,-0.034 -0.022,-0.058c-0,-0.025 0.007,-0.044 0.022,-0.058c0.015,-0.014 0.036,-0.021 0.061,-0.021c0.025,0 0.045,0.007 0.06,0.021c0.015,0.014 0.023,0.033 0.023,0.058c-0.001,0.024 -0.008,0.044 -0.023,0.058c-0.015,0.014 -0.035,0.021 -0.06,0.021Z" style="fill-rule:nonzero;"/>
            </g>
            <g transform="matrix(300,0,0,300,2873,1258)">
                <path d="M0.317,0.01c-0.061,0 -0.105,-0.012 -0.132,-0.037c-0.027,-0.024 -0.04,-0.065 -0.04,-0.123l0,-0.276l-0.121,0l0.001,-0.094l0.12,0l0,-0.17l0.11,0l0,0.17l0.185,0l-0.001,0.094l-0.184,0l0,0.25c0,0.035 0.006,0.058 0.018,0.071c0.012,0.013 0.034,0.019 0.068,0.019c0.018,0 0.035,-0.002 0.052,-0.005c0.017,-0.003 0.032,-0.007 0.046,-0.013l0.001,0.096c-0.02,0.006 -0.04,0.011 -0.061,0.014c-0.02,0.003 -0.041,0.004 -0.063,0.004Z" style="fill-rule:nonzero;"/>
            </g>
            <g transform="matrix(300,0,0,300,3023,1258)">
                <path d="M0.287,0.01c-0.081,0 -0.141,-0.021 -0.181,-0.062c-0.039,-0.041 -0.059,-0.103 -0.059,-0.188l0,-0.04c0,-0.086 0.017,-0.149 0.049,-0.19c0.033,-0.04 0.084,-0.06 0.154,-0.06c0.07,0 0.121,0.02 0.154,0.061c0.032,0.04 0.048,0.103 0.048,0.189l0.001,0.068l-0.352,-0l-0,-0.088l0.266,0l-0.021,0.029l0.001,-0.005c-0.001,-0.058 -0.008,-0.099 -0.023,-0.124c-0.015,-0.025 -0.039,-0.037 -0.074,-0.037c-0.034,0 -0.058,0.012 -0.073,0.037c-0.015,0.025 -0.022,0.066 -0.022,0.125l-0.001,0.031c0.001,0.042 0.005,0.075 0.013,0.098c0.008,0.023 0.022,0.04 0.043,0.049c0.02,0.009 0.049,0.014 0.086,0.014c0.019,0 0.039,-0.001 0.059,-0.003c0.02,-0.003 0.042,-0.007 0.068,-0.013l0,0.093c-0.021,0.005 -0.043,0.009 -0.067,0.012c-0.024,0.003 -0.047,0.004 -0.069,0.004Z" style="fill-rule:nonzero;"/>
            </g>
            <g transform="matrix(300,0,0,300,3173,1258)">
                <path d="M0.11,-0.475c0.034,-0.011 0.071,-0.021 0.11,-0.029c0.04,-0.008 0.079,-0.014 0.118,-0.019c0.038,-0.005 0.074,-0.007 0.107,-0.007l0,0.095c-0.042,0 -0.086,0.004 -0.132,0.012c-0.046,0.008 -0.086,0.018 -0.121,0.031l0.028,-0.052l0,0.444l-0.11,-0l0,-0.475Z" style="fill-rule:nonzero;"/>
            </g>
        </g>
    </g>
</svg>
